<svg xmlns="http://www.w3.org/2000/svg" viewBox="0 0 256 256" width="256" height="256">
  <defs>
    <linearGradient id="bgGrad" x1="0%" y1="0%" x2="100%" y2="100%">
      <stop offset="0%" style="stop-color:#1a3558;stop-opacity:1" />
      <stop offset="100%" style="stop-color:#2563a8;stop-opacity:1" />
    </linearGradient>
    <linearGradient id="bladeGrad" x1="0%" y1="0%" x2="100%" y2="0%">
      <stop offset="0%" style="stop-color:#00d4b4;stop-opacity:1" />
      <stop offset="100%" style="stop-color:#00a8e8;stop-opacity:1" />
    </linearGradient>
    <linearGradient id="paperGrad" x1="0%" y1="0%" x2="0%" y2="100%">
      <stop offset="0%" style="stop-color:#ffffff;stop-opacity:1" />
      <stop offset="100%" style="stop-color:#ccd8ea;stop-opacity:1" />
    </linearGradient>
    <filter id="shadow" x="-15%" y="-15%" width="130%" height="130%">
      <feDropShadow dx="0" dy="3" stdDeviation="5" flood-color="#000" flood-opacity="0.35"/>
    </filter>
    <filter id="glow" x="-20%" y="-20%" width="140%" height="140%">
      <feGaussianBlur stdDeviation="3" result="blur"/>
      <feMerge><feMergeNode in="blur"/><feMergeNode in="SourceGraphic"/></feMerge>
    </filter>
    <clipPath id="roundClip">
      <rect x="0" y="0" width="256" height="256" rx="44" ry="44"/>
    </clipPath>
  </defs>
  <rect x="0" y="0" width="256" height="256" rx="44" ry="44" fill="url(#bgGrad)"/>
  <g clip-path="url(#roundClip)" opacity="0.07">
    <line x1="0" y1="32"  x2="256" y2="32"  stroke="#fff" stroke-width="1"/>
    <line x1="0" y1="64"  x2="256" y2="64"  stroke="#fff" stroke-width="1"/>
    <line x1="0" y1="96"  x2="256" y2="96"  stroke="#fff" stroke-width="1"/>
    <line x1="0" y1="128" x2="256" y2="128" stroke="#fff" stroke-width="1"/>
    <line x1="0" y1="160" x2="256" y2="160" stroke="#fff" stroke-width="1"/>
    <line x1="0" y1="192" x2="256" y2="192" stroke="#fff" stroke-width="1"/>
    <line x1="0" y1="224" x2="256" y2="224" stroke="#fff" stroke-width="1"/>
    <line x1="32"  y1="0" x2="32"  y2="256" stroke="#fff" stroke-width="1"/>
    <line x1="64"  y1="0" x2="64"  y2="256" stroke="#fff" stroke-width="1"/>
    <line x1="96"  y1="0" x2="96"  y2="256" stroke="#fff" stroke-width="1"/>
    <line x1="128" y1="0" x2="128" y2="256" stroke="#fff" stroke-width="1"/>
    <line x1="160" y1="0" x2="160" y2="256" stroke="#fff" stroke-width="1"/>
    <line x1="192" y1="0" x2="192" y2="256" stroke="#fff" stroke-width="1"/>
    <line x1="224" y1="0" x2="224" y2="256" stroke="#fff" stroke-width="1"/>
  </g>
  <rect x="34" y="44" width="82" height="104" rx="5" ry="5" fill="#1a3d6b" stroke="#4a7ab5" stroke-width="1.2" opacity="0.7"/>
  <rect x="38" y="48" width="82" height="104" rx="5" ry="5" fill="#1e4575" stroke="#5588c0" stroke-width="1.2" opacity="0.85"/>
  <rect x="42" y="52" width="82" height="104" rx="5" ry="5" fill="url(#paperGrad)" stroke="#8ab0d8" stroke-width="1.5" filter="url(#shadow)"/>
  <rect x="42" y="130" width="82" height="26" rx="0" ry="0" fill="none" stroke="#2563a8" stroke-width="1.2"/>
  <line x1="90" y1="130" x2="90" y2="156" stroke="#2563a8" stroke-width="1.2"/>
  <rect x="43" y="131" width="46" height="8" rx="1" fill="#ddeaf7" opacity="0.8"/>
  <rect x="43" y="140" width="46" height="15" rx="1" fill="#f0f6ff" opacity="0.9"/>
  <rect x="45" y="133" width="18" height="3" rx="1" fill="#2563a8" opacity="0.5"/>
  <rect x="45" y="142" width="30" height="4" rx="1" fill="#1a3558" opacity="0.7"/>
  <rect x="45" y="148" width="20" height="3" rx="1" fill="#1a3558" opacity="0.4"/>
  <rect x="91" y="131" width="32" height="24" rx="1" fill="#f0f6ff" opacity="0.9"/>
  <rect x="93" y="133" width="12" height="3" rx="1" fill="#2563a8" opacity="0.5"/>
  <rect x="93" y="139" width="16" height="4" rx="1" fill="#1a3558" opacity="0.6"/>
  <line x1="52" y1="72" x2="114" y2="72" stroke="#2563a8" stroke-width="1.2" opacity="0.5"/>
  <line x1="52" y1="80" x2="95"  y2="80" stroke="#2563a8" stroke-width="0.9" opacity="0.4"/>
  <rect x="56" y="87" width="32" height="22" rx="1" fill="none" stroke="#2563a8" stroke-width="1.2" opacity="0.55"/>
  <line x1="56" y1="115" x2="88" y2="115" stroke="#2563a8" stroke-width="0.8" opacity="0.4"/>
  <line x1="56" y1="113" x2="56" y2="117" stroke="#2563a8" stroke-width="0.8" opacity="0.4"/>
  <line x1="88" y1="113" x2="88" y2="117" stroke="#2563a8" stroke-width="0.8" opacity="0.4"/>
  <circle cx="97" cy="98" r="7" fill="none" stroke="#2563a8" stroke-width="1.2" opacity="0.55"/>
  <circle cx="97" cy="98" r="2" fill="#2563a8" opacity="0.4"/>
  <rect x="119" y="30" width="18" height="196" rx="9" ry="9" fill="#00d4b4" opacity="0.18" filter="url(#glow)"/>
  <rect x="122" y="36" width="12" height="184" rx="6" ry="6" fill="url(#bladeGrad)" filter="url(#shadow)"/>
  <rect x="124" y="40" width="4" height="176" rx="2" ry="2" fill="white" opacity="0.25"/>
  <polygon points="120,90  112,82  112,98" fill="#00d4b4" opacity="0.9"/>
  <polygon points="136,166  144,158  144,174" fill="#00a8e8" opacity="0.9"/>
  <rect x="158" y="34" width="72" height="88" rx="5" ry="5" fill="#1a3d6b" stroke="#4a7ab5" stroke-width="1" opacity="0.6" transform="translate(2,3)"/>
  <rect x="158" y="34" width="72" height="88" rx="5" ry="5" fill="url(#paperGrad)" stroke="#8ab0d8" stroke-width="1.5" filter="url(#shadow)"/>
  <rect x="158" y="102" width="72" height="20" rx="0" fill="none" stroke="#2563a8" stroke-width="1"/>
  <line x1="198" y1="102" x2="198" y2="122" stroke="#2563a8" stroke-width="1"/>
  <rect x="159" y="103" width="38" height="18" rx="1" fill="#f0f6ff" opacity="0.8"/>
  <rect x="199" y="103" width="30" height="18" rx="1" fill="#f0f6ff" opacity="0.8"/>
  <rect x="161" y="107" width="22" height="3" rx="1" fill="#1a3558" opacity="0.65"/>
  <rect x="161" y="112" width="16" height="3" rx="1" fill="#1a3558" opacity="0.4"/>
  <line x1="166" y1="50" x2="222" y2="50" stroke="#2563a8" stroke-width="1" opacity="0.45"/>
  <line x1="166" y1="57" x2="200" y2="57" stroke="#2563a8" stroke-width="0.8" opacity="0.35"/>
  <rect x="168" y="63" width="28" height="22" rx="1" fill="none" stroke="#2563a8" stroke-width="1" opacity="0.5"/>
  <circle cx="210" cy="74" r="10" fill="none" stroke="#2563a8" stroke-width="1" opacity="0.5"/>
  <circle cx="229" cy="112" r="4" fill="#00d4b4" opacity="0.85"/>
  <rect x="158" y="138" width="72" height="88" rx="5" ry="5" fill="#1a3d6b" stroke="#4a7ab5" stroke-width="1" opacity="0.6" transform="translate(2,3)"/>
  <rect x="158" y="138" width="72" height="88" rx="5" ry="5" fill="url(#paperGrad)" stroke="#8ab0d8" stroke-width="1.5" filter="url(#shadow)"/>
  <rect x="158" y="206" width="72" height="20" rx="0" fill="none" stroke="#2563a8" stroke-width="1"/>
  <line x1="198" y1="206" x2="198" y2="226" stroke="#2563a8" stroke-width="1"/>
  <rect x="159" y="207" width="38" height="18" rx="1" fill="#f0f6ff" opacity="0.8"/>
  <rect x="199" y="207" width="30" height="18" rx="1" fill="#f0f6ff" opacity="0.8"/>
  <rect x="161" y="211" width="22" height="3" rx="1" fill="#1a3558" opacity="0.65"/>
  <rect x="161" y="216" width="16" height="3" rx="1" fill="#1a3558" opacity="0.4"/>
  <line x1="166" y1="154" x2="222" y2="154" stroke="#2563a8" stroke-width="1" opacity="0.45"/>
  <line x1="166" y1="161" x2="205" y2="161" stroke="#2563a8" stroke-width="0.8" opacity="0.35"/>
  <line x1="168" y1="172" x2="186" y2="172" stroke="#2563a8" stroke-width="1.5" opacity="0.5"/>
  <line x1="186" y1="172" x2="186" y2="185" stroke="#2563a8" stroke-width="1.5" opacity="0.5"/>
  <line x1="186" y1="185" x2="210" y2="185" stroke="#2563a8" stroke-width="1.5" opacity="0.5"/>
  <rect x="210" y="178" width="12" height="14" rx="2" fill="none" stroke="#2563a8" stroke-width="1" opacity="0.5"/>
  <circle cx="229" cy="216" r="4" fill="#00a8e8" opacity="0.85"/>
  <text x="128" y="248" text-anchor="middle" font-family="'Segoe UI', Arial, sans-serif" font-size="11" font-weight="700" letter-spacing="3" fill="white" opacity="0.22">DOCDIVIDE</text>
</svg>